HIERARCHY
ROOT Hips
{
	OFFSET 0.000000 88.474243 0.000000
	CHANNELS 6 Xposition Yposition Zposition Zrotation Yrotation Xrotation 
	JOINT Hips_Spine
	{
		OFFSET 0.000000 0.000000 0.000000
		CHANNELS 3 Zrotation Yrotation Xrotation
		JOINT Spine
		{
			OFFSET 0.005100 8.711998 -0.691000
			CHANNELS 3 Zrotation Yrotation Xrotation
			JOINT Spine1
			{
				OFFSET -0.009200 8.660301 -1.275000
				CHANNELS 3 Zrotation Yrotation Xrotation
				JOINT Spine2
				{
					OFFSET 0.006300 9.852501 -1.857000
					CHANNELS 3 Zrotation Yrotation Xrotation
					JOINT Spine2_Neck
					{
						OFFSET 0.000000 0.000000 0.000000
						CHANNELS 3 Zrotation Yrotation Xrotation
						JOINT Neck
						{
							OFFSET 0.016300 11.420799 -0.263300
							CHANNELS 3 Zrotation Yrotation Xrotation
							End Site #name: Head
							{
								OFFSET -0.019200 9.262405 2.362500
							}
						}
					}
					JOINT Spine2_LeftShoulder
					{
						OFFSET 0.000000 0.000000 0.000000
						CHANNELS 3 Zrotation Yrotation Xrotation
						JOINT LeftShoulder
						{
							OFFSET 5.616900 6.732201 -0.345700
							CHANNELS 3 Zrotation Yrotation Xrotation
							JOINT LeftArm
							{
								OFFSET 10.664888 -0.183372 -2.440700
								CHANNELS 3 Zrotation Yrotation Xrotation
								JOINT LeftForeArm
								{
									OFFSET 27.459126 0.000000 0.000000
									CHANNELS 3 Zrotation Yrotation Xrotation
									End Site #name: LeftHand
									{
										OFFSET 21.306858 0.000000 0.000000
									}
								}
							}
						}
					}
					JOINT Spine2_RightShoulder
					{
						OFFSET 0.000000 0.000000 0.000000
						CHANNELS 3 Zrotation Yrotation Xrotation
						JOINT RightShoulder
						{
							OFFSET -5.580300 6.737503 -0.344400
							CHANNELS 3 Zrotation Yrotation Xrotation
							JOINT RightArm
							{
								OFFSET -10.679335 -0.188484 -2.383900
								CHANNELS 3 Zrotation Yrotation Xrotation
								JOINT RightForeArm
								{
									OFFSET -27.503529 0.000000 0.000000
									CHANNELS 3 Zrotation Yrotation Xrotation
									End Site #name: RightHand
									{
										OFFSET -21.306808 0.000000 0.000000
									}
								}
							}
						}
					}
				}
			}
		}
	}
	JOINT Hips_LeftUpLeg
	{
		OFFSET 0.000000 0.000000 0.000000
		CHANNELS 3 Zrotation Yrotation Xrotation
		JOINT LeftUpLeg
		{
			OFFSET 6.857700 -6.739601 0.312100
			CHANNELS 3 Zrotation Yrotation Xrotation
			JOINT LeftLeg
			{
				OFFSET -0.367590 -34.731552 -4.572400
				CHANNELS 3 Zrotation Yrotation Xrotation
				End Site #name: LeftFoot
				{
					OFFSET 0.367590 -34.656704 -6.067400
				}
			}
		}
	}
	JOINT Hips_RightUpLeg
	{
		OFFSET 0.000000 0.000000 0.000000
		CHANNELS 3 Zrotation Yrotation Xrotation
		JOINT RightUpLeg
		{
			OFFSET -6.876100 -6.733299 0.301000
			CHANNELS 3 Zrotation Yrotation Xrotation
			JOINT RightLeg
			{
				OFFSET 0.347353 -34.795158 -4.515900
				CHANNELS 3 Zrotation Yrotation Xrotation
				End Site #name: RightFoot
				{
					OFFSET -0.347353 -34.589367 -6.070300
				}
			}
		}
	}
}
MOTION
Frames: 7
Frame Time: 0.041667
-1.054754 1.865591 0.360332 8.784732 47.965137 -16.797119 0.000000 -0.000000 0.000000 -7.957642 4.847007 -26.327676 5.817898 -8.665883 -5.878658 0.000000 0.000000 0.000000 3.866898 -0.712512 0.812316 -13.741515 -1.775664 -7.157567 14.214141 2.650733 -7.391077 -54.908488 -31.294933 7.382419 -156.459918 46.443422 -115.542767 -179.588747 -31.343990 177.078771 5.570004 3.114676 -3.998928 9.276965 5.537778 6.024611 165.038972 69.520501 38.311690 0.598659 29.021556 4.571938 0.000000 -0.000000 0.000000 40.590102 6.118902 36.174494 58.790915 26.966948 108.932409 -0.000000 -0.000000 0.000000 81.894714 9.452399 -4.383116 -14.632341 7.333673 -81.134414 
-2.614166 4.356953 0.364752 14.477242 43.035113 -16.700172 0.000000 -0.000000 0.000000 -1.502581 8.708141 -51.081949 3.757373 -6.300533 6.978977 0.000000 0.000000 0.000000 -2.112222 1.819569 2.429691 -26.816189 5.482487 -10.066203 16.272425 0.714525 -8.435641 -81.227698 -34.122908 15.985024 -155.475640 44.589308 -119.808062 175.566768 -30.381849 178.645593 6.698912 1.699061 -12.349355 19.442126 17.792592 -0.873781 -80.489164 89.025044 149.823102 -3.758200 73.926903 -1.309702 0.000000 -0.000000 0.000000 38.207715 -9.769610 39.483846 59.265229 22.145032 127.450016 -0.000000 -0.000000 0.000000 72.281912 1.239674 -27.000541 -18.762811 3.665452 -80.783650 
-4.545039 6.766915 0.485762 14.412789 49.208201 -17.117867 0.000000 -0.000000 0.000000 2.546818 10.897570 -56.684998 2.873991 -5.126046 11.623350 0.000000 0.000000 0.000000 -3.775273 3.885747 11.372243 -33.360790 12.205926 -5.845691 15.784548 0.231721 -9.770657 -92.179204 -30.987424 15.996759 -150.095485 45.269794 -116.381193 175.837771 -25.032230 179.159996 6.968727 1.985676 -10.733018 32.205186 4.336869 -9.706906 24.528463 71.288993 -116.905266 -173.445363 55.546272 -174.821624 0.000000 -0.000000 0.000000 31.613037 -14.055232 38.408220 72.934472 25.698958 125.371424 -0.000000 -0.000000 0.000000 67.413457 7.400559 -34.618350 -20.631430 7.259846 -75.640006 
-6.694647 9.375185 0.733938 14.013008 56.219702 -17.002304 0.000000 -0.000000 0.000000 4.334672 13.394691 -57.843697 1.706120 -5.497873 10.959926 0.000000 0.000000 0.000000 -4.891614 4.074431 12.800596 -39.384434 15.425794 -1.984321 14.156554 -1.671000 -9.729948 -97.730726 -28.355231 15.083651 -148.445323 48.200861 -117.674740 176.568191 -23.381663 178.851245 6.061614 0.733185 -11.303010 35.388780 0.971465 -11.997553 35.647421 59.128997 -119.475893 -174.908395 35.138145 -176.317662 -0.000000 -0.000000 0.000000 28.958951 -17.942130 39.265666 75.191679 28.598469 122.788385 -0.000000 -0.000000 0.000000 66.865512 7.684863 -37.179766 -20.717025 7.035240 -72.869632 
-8.996099 12.108417 1.169775 12.977635 63.483958 -17.342408 0.000000 -0.000000 0.000000 6.145854 15.020202 -55.840831 0.791706 -6.278131 9.390919 0.000000 0.000000 0.000000 -5.391032 3.069210 11.757291 -46.174669 15.799138 -2.540324 12.851300 -3.041541 -9.263776 -99.249099 -26.275374 14.611381 -148.865323 50.056587 -119.912512 177.004525 -24.932794 178.603394 4.056700 -1.075396 -11.087850 38.046077 -1.152000 -14.121252 38.759313 54.686301 -125.712708 -176.680885 21.724948 -177.344403 -0.000000 -0.000000 0.000000 29.601839 -19.194669 38.438365 75.028081 29.356042 122.022703 -0.000000 -0.000000 0.000000 66.927100 7.186388 -38.540476 -21.505492 8.186726 -70.406102 
-11.403061 14.952237 1.729727 12.070199 68.715498 -17.726614 0.000000 -0.000000 0.000000 7.084217 15.057607 -53.070853 0.073638 -7.514423 7.710797 0.000000 0.000000 0.000000 -5.813832 2.121286 10.627890 -51.910308 16.987630 -3.299876 11.553735 -3.759352 -8.741856 -99.443561 -25.337231 13.904650 -151.317470 51.003874 -122.370329 177.038517 -26.770562 178.490988 2.600549 -2.554010 -10.503176 42.050533 -2.974120 -15.746440 40.465700 51.285591 -129.785706 -177.766782 21.032094 -177.262483 -0.000000 -0.000000 0.000000 31.440470 -20.449909 35.309011 74.524105 30.144285 120.995624 -0.000000 -0.000000 0.000000 67.799574 6.584244 -38.425858 -22.356038 9.168139 -68.296406 
-13.862694 17.899162 2.379066 11.030459 72.573863 -18.366719 0.000000 -0.000000 0.000000 7.565662 14.661585 -50.579794 -0.378586 -9.134501 6.012033 0.000000 0.000000 0.000000 -5.935067 1.082801 9.748004 -55.060879 19.227040 -3.030162 9.703040 -4.246501 -8.093162 -99.252518 -24.662296 12.959176 -154.567717 51.324978 -124.493049 176.949457 -27.451946 178.450909 1.147518 -3.782747 -9.540375 46.189538 -5.163748 -17.493162 42.453038 47.959835 -131.537893 -178.104083 23.171935 -177.301139 -0.000000 -0.000000 0.000000 34.439832 -21.484657 32.140249 72.893356 30.752564 119.411266 -0.000000 -0.000000 0.000000 68.528142 6.217781 -38.025031 -22.984269 10.171180 -67.475756 
